<?xml version="1.0" standalone="no"?>
<!DOCTYPE svg PUBLIC "-//W3C//DTD SVG 20010904//EN"
 "http://www.w3.org/TR/2001/REC-SVG-20010904/DTD/svg10.dtd">
<svg version="1.0" xmlns="http://www.w3.org/2000/svg"
 width="156.000000pt" height="49.000000pt" viewBox="0 0 156.000000 49.000000"
 preserveAspectRatio="xMidYMid meet">

<g transform="translate(0.000000,49.000000) scale(0.100000,-0.100000)"
fill="#000000" stroke="none">
<path d="M1002 470 l-22 -18 27 -7 c17 -4 29 -2 31 4 5 14 59 14 67 0 14 -21
-6 -58 -47 -88 -50 -37 -58 -38 -58 -8 0 48 -52 65 -72 22 -9 -19 -8 -29 5
-49 15 -23 15 -24 -6 -30 -12 -3 -41 -6 -65 -6 -51 0 -63 19 -38 61 9 16 15
29 12 29 -9 0 -56 -74 -56 -87 0 -26 32 -43 81 -43 l49 0 0 -125 c0 -100 3
-125 14 -125 18 0 22 13 31 84 4 31 11 58 15 61 4 2 16 -28 26 -68 14 -54 24
-73 38 -75 17 -4 18 0 12 44 -3 27 -9 94 -12 149 l-6 100 31 18 c79 46 106
133 46 150 -16 5 -42 12 -56 16 -18 6 -32 3 -47 -9z"/>
<path d="M253 241 c-11 -17 -9 -19 23 -19 36 0 42 6 22 26 -17 17 -31 15 -45
-7z"/>
<path d="M22 188 c-7 -7 -12 -43 -12 -90 0 -66 3 -79 19 -88 46 -24 101 -2
101 41 0 12 -7 19 -20 19 -11 0 -20 -6 -20 -14 0 -19 -29 -29 -36 -12 -10 26
1 119 14 124 7 2 16 -5 19 -17 6 -25 36 -25 41 0 7 39 -75 68 -106 37z"/>
<path d="M160 99 c0 -90 2 -100 18 -97 14 3 17 17 20 101 3 92 2 97 -18 97
-19 0 -20 -6 -20 -101z"/>
<path d="M230 100 l0 -100 50 0 c43 0 50 3 50 20 0 16 -7 20 -30 20 -25 0 -30
4 -30 25 0 20 5 25 25 25 16 0 25 6 25 15 0 9 -10 15 -26 15 -21 0 -25 4 -22
23 2 16 11 23 31 25 15 2 27 9 27 18 0 10 -13 14 -50 14 l-50 0 0 -100z"/>
<path d="M360 99 c0 -90 2 -100 18 -97 12 2 18 16 22 47 l5 44 23 -47 c16 -34
28 -46 40 -44 14 3 17 18 20 101 3 91 2 97 -17 97 -17 0 -20 -8 -23 -47 l-3
-48 -25 48 c-15 30 -31 47 -42 47 -16 0 -18 -10 -18 -101z"/>
<path d="M532 188 c-7 -7 -12 -43 -12 -90 0 -66 3 -79 19 -88 46 -24 101 -2
101 41 0 12 -7 19 -20 19 -11 0 -20 -6 -20 -14 0 -19 -29 -29 -36 -12 -10 26
1 119 14 124 7 2 16 -5 19 -17 3 -12 13 -21 24 -21 26 0 26 46 0 60 -26 14
-74 13 -89 -2z"/>
<path d="M670 100 c0 -93 1 -100 20 -100 19 0 20 7 20 100 0 93 -1 100 -20
100 -19 0 -20 -7 -20 -100z"/>
<path d="M776 192 c-6 -10 -46 -167 -46 -181 0 -19 32 -12 37 9 7 27 49 27 56
0 3 -12 14 -20 27 -20 16 0 20 5 16 18 -3 9 -9 35 -15 57 -29 119 -32 125 -51
125 -10 0 -21 -4 -24 -8z m28 -84 c4 -17 2 -28 -4 -28 -5 0 -10 14 -10 32 0
36 4 35 14 -4z"/>
<path d="M1090 128 c10 -40 21 -86 24 -101 5 -22 12 -28 28 -25 18 2 25 15 38
68 31 123 32 130 11 130 -22 0 -27 -10 -36 -75 -9 -55 -20 -45 -30 27 -6 42
-10 48 -30 48 l-23 0 18 -72z"/>
<path d="M1230 100 c0 -93 1 -100 20 -100 19 0 20 7 20 100 0 93 -1 100 -20
100 -19 0 -20 -7 -20 -100z"/>
<path d="M1291 183 c0 -10 10 -54 22 -98 18 -66 25 -80 42 -80 17 0 24 14 42
80 27 101 28 115 4 115 -15 0 -21 -13 -31 -62 l-13 -63 -14 63 c-12 50 -18 62
-34 62 -12 0 -19 -7 -18 -17z"/>
<path d="M1441 115 c-11 -46 -21 -91 -21 -100 0 -22 31 -18 37 5 3 13 14 20
28 20 14 0 25 -7 28 -20 6 -23 37 -27 37 -5 0 9 -10 54 -21 100 -19 75 -24 85
-44 85 -20 0 -25 -10 -44 -85z m45 -33 c-11 -10 -15 4 -8 28 l7 25 3 -23 c2
-13 1 -26 -2 -30z"/>
</g>
</svg>
